<svg viewBox="0 0 72 72" xmlns="http://www.w3.org/2000/svg"><g fill="#ffffff" stroke="#000" stroke-width="2"><path d="m29.8021 32.5882c-.0114-3.5853 1.6194-7.117 5.1825-8.5828a7.1956 7.1956 0 0 1 5.5074-.0042c2.9734 1.276 4.6026 4.4632 5.7132 7.5022a66.7013 66.7013 0 0 1 2.61 9.38c.2643 1.2761.4358 2.5771.6448 3.863.16.9815 1.1217 3.6747.7448 4.5942-.55 1.3419-5.7909-.4749-6.967-.941a25.49 25.49 0 0 1 -6.906-4.1996 19.4484 19.4484 0 0 1 -5.5989-7.0507 11.7711 11.7711 0 0 1 -.9308-4.5611z" stroke-miterlimit="10"/><g stroke-linecap="round" stroke-linejoin="round"><path fill="#ffffff" d="m27.8484 16.864-4.7684 1.915a7.48 7.48 0 0 1 -.08-1.0382 6.6464 6.6464 0 0 1 5.7246-6.8221"/><path fill="#ffffff" d="m52.769 53.4211a24.8711 24.8711 0 0 1 .9267 4.2946c-.7615.3807-1.5229 1.9036-2.2843 2.2843a50.4224 50.4224 0 0 0 -2.282-5.8286c-.7231-1.6234-1.6494-2.7552-2.4337-4.1714"/><path fill="#ffffff" d="m29.5575 19.0681a3.4693 3.4693 0 0 1 -5.3388-.749"/><path fill="#ffffff" d="m34.6957 45v7"/><path fill="#ffffff" d="m57.0873 52h3.9127"/><path fill="#ffffff" d="m13 52.1722h29.9895"/><path fill="#ffffff" d="m34.2793 44.01c-4.4155 0-7.995-5.3692-7.995-11.9924 0-5.1589 2.1758-9.5439 5.2226-11.2366a7.4106 7.4106 0 0 1 4.4855-13.3195 7.5768 7.5768 0 0 1 7.4184 7.1139c.12 2.2168.0732 4.46.0353 6.6942-.0156.9227-.03 1.8438-.03 2.7608v1.7054"/><path fill="#ffffff" d="m31.6974 20.781c-.0874.0469-.1714.1034-.2575.1544a8.1279 8.1279 0 0 0 5.5601-2.9354 6.5956 6.5956 0 0 0 1-2c-.3762-.7827-2.6641-5.37-7-6-.1248-.0181-.2732-.02-.4079-.0312"/><path fill="#ffffff" d="m40.6957 48v4"/></g></g></svg>